<svg width="100" height="100" viewBox="0 0 100 100" xmlns="http://www.w3.org/2000/svg">
  <defs>
    <linearGradient id="filmGradient2" x1="0%" y1="0%" x2="100%" y2="100%">
      <stop offset="0%" style="stop-color:#FFD700;stop-opacity:1" />
      <stop offset="50%" style="stop-color:#FFA500;stop-opacity:1" />
      <stop offset="100%" style="stop-color:#FF8C00;stop-opacity:1" />
    </linearGradient>
    <linearGradient id="cameraGradient2" x1="0%" y1="0%" x2="100%" y2="100%">
      <stop offset="0%" style="stop-color:#2C3E50;stop-opacity:1" />
      <stop offset="100%" style="stop-color:#34495E;stop-opacity:1" />
    </linearGradient>
    <filter id="shadow2" x="-50%" y="-50%" width="200%" height="200%">
      <feDropShadow dx="2" dy="2" stdDeviation="2" flood-color="#000000" flood-opacity="0.3"/>
    </filter>
  </defs>
  
  <!-- Background Circle -->
  <circle cx="50" cy="50" r="47" fill="url(#cameraGradient2)" filter="url(#shadow2)"/>
  
  <!-- Film Strip -->
  <rect x="15" y="40" width="70" height="20" fill="url(#filmGradient2)" rx="3"/>
  
  <!-- Film holes -->
  <circle cx="22" cy="45" r="1.5" fill="#2C3E50"/>
  <circle cx="30" cy="45" r="1.5" fill="#2C3E50"/>
  <circle cx="38" cy="45" r="1.5" fill="#2C3E50"/>
  <circle cx="46" cy="45" r="1.5" fill="#2C3E50"/>
  <circle cx="54" cy="45" r="1.5" fill="#2C3E50"/>
  <circle cx="62" cy="45" r="1.5" fill="#2C3E50"/>
  <circle cx="70" cy="45" r="1.5" fill="#2C3E50"/>
  <circle cx="78" cy="45" r="1.5" fill="#2C3E50"/>
  
  <circle cx="22" cy="55" r="1.5" fill="#2C3E50"/>
  <circle cx="30" cy="55" r="1.5" fill="#2C3E50"/>
  <circle cx="38" cy="55" r="1.5" fill="#2C3E50"/>
  <circle cx="46" cy="55" r="1.5" fill="#2C3E50"/>
  <circle cx="54" cy="55" r="1.5" fill="#2C3E50"/>
  <circle cx="62" cy="55" r="1.5" fill="#2C3E50"/>
  <circle cx="70" cy="55" r="1.5" fill="#2C3E50"/>
  <circle cx="78" cy="55" r="1.5" fill="#2C3E50"/>
  
  <!-- Camera Lens -->
  <circle cx="50" cy="30" r="12" fill="#1A252F" stroke="url(#filmGradient2)" stroke-width="2"/>
  <circle cx="50" cy="30" r="8" fill="#2C3E50"/>
  <circle cx="50" cy="30" r="5" fill="#34495E"/>
  <circle cx="53" cy="27" r="1.5" fill="#FFD700" opacity="0.8"/>
  
  <!-- Play Button -->
  <polygon points="42,70 42,80 52,75" fill="url(#filmGradient2)"/>
  
  <!-- Star -->
  <polygon points="75,20 76,23 79,23 77,25 78,28 75,26 72,28 73,25 71,23 74,23" fill="#FFD700" opacity="0.8"/>
</svg>
